<?xml version="1.0" encoding="UTF-8"?>
<svg version="1.1" xmlns="http://www.w3.org/2000/svg" width="475" height="475">
<path d="M0 0 C9.73504681 7.9108889 17.0672557 19.89266491 18.85546875 32.41015625 C20.01733728 48.85018689 17.73709573 61.83385015 7.85546875 75.41015625 C7.4171875 76.05597656 6.97890625 76.70179688 6.52734375 77.3671875 C-0.62498502 86.91080691 -14.46672683 93.59808315 -26.14453125 95.41015625 C-43.3734338 96.50490943 -58.2992364 92.95255351 -71.89453125 81.72265625 C-81.72136666 72.49351745 -87.7611718 59.78517599 -88.3828125 46.34375 C-88.80752054 29.09524693 -84.31012508 15.32503478 -72.40234375 2.51171875 C-52.04528071 -16.436551 -21.68018158 -16.0725572 0 0 Z M-65.51953125 13.66015625 C-73.41180595 24.05087294 -77.27668399 34.39039972 -76.14453125 47.41015625 C-74.20432437 58.7162709 -68.14440442 68.97673194 -58.8828125 75.72265625 C-48.03054966 82.41049868 -37.74190681 84.65424334 -25.23828125 82.26953125 C-11.92634342 78.57177074 -3.83575552 71.18332301 2.85546875 59.41015625 C7.38684799 50.72638586 8.25614072 40.8591408 5.73046875 31.41015625 C3.89853218 25.91434653 1.08346664 21.193916 -2.14453125 16.41015625 C-2.84578125 15.35828125 -3.54703125 14.30640625 -4.26953125 13.22265625 C-11.63647907 4.91122794 -23.35579628 1.05670244 -34.08203125 0.03515625 C-45.59356017 0.62128298 -57.58686853 5.0664383 -65.51953125 13.66015625 Z " fill="#010101" transform="translate(273.14453125,196.58984375)"/>
<path d="M0 0 C5.64873786 5.28945418 9.30722446 11.72889785 11.1875 19.25 C11.1875 20.9 11.1875 22.55 11.1875 24.25 C7.2275 24.25 3.2675 24.25 -0.8125 24.25 C-1.34875 22.909375 -1.885 21.56875 -2.4375 20.1875 C-5.88972974 12.55183908 -10.24920126 7.63259838 -17.97265625 4.13671875 C-25.19783619 1.88071346 -32.35344304 2.19090053 -39.25 5.3125 C-45.17249929 8.72562865 -49.89133043 13.61031066 -52.33984375 20.10546875 C-53.94633387 27.3944198 -53.93276178 35.06295118 -49.99609375 41.546875 C-49.60550781 42.10890625 -49.21492188 42.6709375 -48.8125 43.25 C-48.11125 44.301875 -47.41 45.35375 -46.6875 46.4375 C-41.89514467 51.81787439 -34.29592521 55.02559093 -27.1640625 55.44140625 C-18.6568893 54.74896192 -11.31431595 50.68608659 -5.8125 44.25 C-3.59046267 40.7360805 -2.12359573 37.18328718 -0.8125 33.25 C3.1475 33.25 7.1075 33.25 11.1875 33.25 C10.63869922 44.77481635 5.63868515 52.03581125 -2.81640625 59.78515625 C-12.39891096 67.66854669 -22.76117593 68.38105279 -34.71142578 67.48046875 C-45.74447474 66.27024353 -53.51070571 58.5701164 -60.25 50.25 C-66.85529447 40.66951624 -67.11455116 29.50717444 -65.34375 18.27734375 C-63.78630328 12.27931976 -60.88388591 7.85911612 -56.8125 3.25 C-56.2865625 2.63125 -55.760625 2.0125 -55.21875 1.375 C-40.24011792 -15.01671057 -16.25938335 -13.44680468 0 0 Z " fill="#010101" transform="translate(265.8125,209.75)"/>
<path d="M0 0 C4.24616658 3.01264333 7.34500384 6.02385263 9.72265625 10.67578125 C9.39265625 11.66578125 9.06265625 12.65578125 8.72265625 13.67578125 C8.39394531 13.16789062 8.06523437 12.66 7.7265625 12.13671875 C3.35605935 5.81192558 -1.89124684 1.13781355 -9.27734375 -1.32421875 C-18.03110801 -2.1836346 -25.02408194 -1.54078567 -32.27734375 3.67578125 C-37.51979163 8.35177819 -40.86496648 13.69964983 -41.59375 20.7265625 C-41.91725401 29.77423929 -40.09469492 34.71626069 -34.96484375 41.92578125 C-31.90320459 45.05862133 -29.15887123 46.69696332 -25.27734375 48.67578125 C-28.27734375 49.67578125 -28.27734375 49.67578125 -30.109375 48.77734375 C-37.08906446 43.57355161 -41.84964045 37.87634413 -43.77734375 29.23828125 C-44.86802152 21.18750514 -43.39662826 14.17988304 -38.7421875 7.48828125 C-29.03012597 -4.52877622 -13.53795796 -7.87198584 0 0 Z " fill="#090909" transform="translate(254.27734375,214.32421875)"/>
<path d="M0 0 C0.66 0.33 1.32 0.66 2 1 C1.40574219 1.37769531 0.81148437 1.75539062 0.19921875 2.14453125 C-7.10437808 6.99466476 -12.99129048 12.68285862 -19 19 C-19 14.48423535 -16.4668737 12.60047935 -13.50390625 9.3671875 C-9.48749865 5.57008453 -4.98706454 2.40117922 0 0 Z " fill="#090909" transform="translate(214,190)"/>
<path d="M0 0 C9.41157697 2.69488469 16.04734274 9.48085399 22 17 C21.67 17.66 21.34 18.32 21 19 C20.154375 18.11957031 19.30875 17.23914063 18.4375 16.33203125 C12.65170576 10.38326891 7.3352766 5.02721068 0 1 C0 0.67 0 0.34 0 0 Z " fill="#090909" transform="translate(261,190)"/>
<path d="M0 0 C4.91935902 4.11619836 9.52647956 8.40410362 14 13 C10.30159372 13 9.68584567 12.17133056 7 9.75 C6.319375 9.14671875 5.63875 8.5434375 4.9375 7.921875 C3.04921444 6.04881755 1.46643912 4.21798917 0 2 C0 1.34 0 0.68 0 0 Z " fill="#090909" transform="translate(194,268)"/>
<path d="M0 0 C0 4.58228538 -2.91611967 6.8183381 -6 10 C-8.375 11.9375 -8.375 11.9375 -10 13 C-10.66 12.67 -11.32 12.34 -12 12 C-8.04 8.04 -4.08 4.08 0 0 Z " fill="#090909" transform="translate(281,269)"/>
</svg>
